<svg width="300" height="300" viewBox="0 0 300 300" version="1.1" xmlns="http://www.w3.org/2000/svg" xmlns:xlink="http://www.w3.org/1999/xlink">
<title>Frame</title>
<desc>Created using Figma</desc>
<g id="Canvas" transform="translate(214 0)">
<clipPath id="clip-0" clip-rule="evenodd">
<path d="M -214 0L 86 0L 86 300L -214 300L -214 0Z" fill="#FFFFFF"/>
</clipPath>
<g id="Frame" clip-path="url(#clip-0)">
<path d="M -214 0L 86 0L 86 300L -214 300L -214 0Z" fill="#FFFFFF"/>
<g id="Group">
<g id="Group">
<g id="bepo">
<g id="layer1">
<g id="g3691">
<g id="path3695">
<use xlink:href="#path0_fill" transform="translate(-135 27)" fill="#33D399"/>
<use xlink:href="#path1_fill" transform="translate(-135 27)" fill="#33D399"/>
</g>
<g id="path3693">
<use xlink:href="#path2_fill" transform="translate(-135 27)"/>
<use xlink:href="#path3_fill" transform="translate(-135 27)"/>
<use xlink:href="#path4_fill" transform="translate(-135 27)"/>
<use xlink:href="#path5_fill" transform="translate(-135 27)"/>
<use xlink:href="#path6_fill" transform="translate(-135 27)"/>
<use xlink:href="#path7_fill" transform="translate(-135 27)"/>
<mask id="mask0_outline_ins">
<use xlink:href="#path2_fill" fill="white" transform="translate(-135 27)"/>
<use xlink:href="#path3_fill" fill="white" transform="translate(-135 27)"/>
<use xlink:href="#path4_fill" fill="white" transform="translate(-135 27)"/>
<use xlink:href="#path5_fill" fill="white" transform="translate(-135 27)"/>
<use xlink:href="#path6_fill" fill="white" transform="translate(-135 27)"/>
<use xlink:href="#path7_fill" fill="white" transform="translate(-135 27)"/>
</mask>
<g mask="url(#mask0_outline_ins)">
<use xlink:href="#path8_stroke_2x" transform="translate(-135 27)"/>
</g>
</g>
</g>
</g>
</g>
<g id="coding">
<g id="Vector">
<use xlink:href="#path9_fill" transform="translate(-89.3725 172.157)"/>
</g>
<g id="Group">
<g id="Vector">
<use xlink:href="#path10_fill" transform="translate(-82.8543 191.627)" fill="#FFFFFF"/>
</g>
<g id="Vector">
<use xlink:href="#path11_fill" transform="translate(-67.3576 188.461)" fill="#FFFFFF"/>
</g>
<g id="Vector">
<use xlink:href="#path12_fill" transform="translate(-57.943 191.655)" fill="#FFFFFF"/>
</g>
</g>
<clipPath id="clip-1" clip-rule="evenodd">
<path d="M -79.5952 183.515L -73.2297 183.515L -73.2297 189.883L -79.5952 189.883L -79.5952 183.515Z" fill="#FFFFFF"/>
</clipPath>
<g id="Group" clip-path="url(#clip-1)">
</g>
<clipPath id="clip-2" clip-rule="evenodd">
<path d="M -79.5952 183.515L -73.2297 183.515L -73.2297 189.883L -79.5952 189.883L -79.5952 183.515Z" fill="#FFFFFF"/>
</clipPath>
<g id="Group" clip-path="url(#clip-2)">
</g>
<clipPath id="clip-3" clip-rule="evenodd">
<path d="M -79.5952 183.515L -73.2297 183.515L -73.2297 189.883L -79.5952 189.883L -79.5952 183.515Z" fill="#FFFFFF"/>
</clipPath>
<g id="Group" clip-path="url(#clip-3)">
</g>
<clipPath id="clip-4" clip-rule="evenodd">
<path d="M -79.5952 183.515L -73.2297 183.515L -73.2297 189.883L -79.5952 189.883L -79.5952 183.515Z" fill="#FFFFFF"/>
</clipPath>
<g id="Group" clip-path="url(#clip-4)">
</g>
<clipPath id="clip-5" clip-rule="evenodd">
<path d="M -79.5952 183.515L -73.2297 183.515L -73.2297 189.883L -79.5952 189.883L -79.5952 183.515Z" fill="#FFFFFF"/>
</clipPath>
<g id="Group" clip-path="url(#clip-5)">
</g>
<clipPath id="clip-6" clip-rule="evenodd">
<path d="M -79.5952 183.515L -73.2297 183.515L -73.2297 189.883L -79.5952 189.883L -79.5952 183.515Z" fill="#FFFFFF"/>
</clipPath>
<g id="Group" clip-path="url(#clip-6)">
</g>
<clipPath id="clip-7" clip-rule="evenodd">
<path d="M -79.5952 183.515L -73.2297 183.515L -73.2297 189.883L -79.5952 189.883L -79.5952 183.515Z" fill="#FFFFFF"/>
</clipPath>
<g id="Group" clip-path="url(#clip-7)">
</g>
<clipPath id="clip-8" clip-rule="evenodd">
<path d="M -79.5952 183.515L -73.2297 183.515L -73.2297 189.883L -79.5952 189.883L -79.5952 183.515Z" fill="#FFFFFF"/>
</clipPath>
<g id="Group" clip-path="url(#clip-8)">
</g>
<clipPath id="clip-9" clip-rule="evenodd">
<path d="M -79.5952 183.515L -73.2297 183.515L -73.2297 189.883L -79.5952 189.883L -79.5952 183.515Z" fill="#FFFFFF"/>
</clipPath>
<g id="Group" clip-path="url(#clip-9)">
</g>
<clipPath id="clip-10" clip-rule="evenodd">
<path d="M -79.5952 183.515L -73.2297 183.515L -73.2297 189.883L -79.5952 189.883L -79.5952 183.515Z" fill="#FFFFFF"/>
</clipPath>
<g id="Group" clip-path="url(#clip-10)">
</g>
<clipPath id="clip-11" clip-rule="evenodd">
<path d="M -79.5952 183.515L -73.2297 183.515L -73.2297 189.883L -79.5952 189.883L -79.5952 183.515Z" fill="#FFFFFF"/>
</clipPath>
<g id="Group" clip-path="url(#clip-11)">
</g>
<clipPath id="clip-12" clip-rule="evenodd">
<path d="M -79.5952 183.515L -73.2297 183.515L -73.2297 189.883L -79.5952 189.883L -79.5952 183.515Z" fill="#FFFFFF"/>
</clipPath>
<g id="Group" clip-path="url(#clip-12)">
</g>
<clipPath id="clip-13" clip-rule="evenodd">
<path d="M -79.5952 183.515L -73.2297 183.515L -73.2297 189.883L -79.5952 189.883L -79.5952 183.515Z" fill="#FFFFFF"/>
</clipPath>
<g id="Group" clip-path="url(#clip-13)">
</g>
<clipPath id="clip-14" clip-rule="evenodd">
<path d="M -79.5952 183.515L -73.2297 183.515L -73.2297 189.883L -79.5952 189.883L -79.5952 183.515Z" fill="#FFFFFF"/>
</clipPath>
<g id="Group" clip-path="url(#clip-14)">
</g>
<clipPath id="clip-15" clip-rule="evenodd">
<path d="M -79.5952 183.515L -73.2297 183.515L -73.2297 189.883L -79.5952 189.883L -79.5952 183.515Z" fill="#FFFFFF"/>
</clipPath>
<g id="Group" clip-path="url(#clip-15)">
</g>
</g>
</g>
</g>
</g>
</g>
<defs>
<path id="path0_fill" d="M 16.8665 60.8999C 13.2571 60.8999 11.39 65.1531 13.8979 67.6623C 15.2758 69.0408 18.018 68.6179 19.1207 66.8569C 20.5401 64.5901 19.1437 60.8999 16.8665 60.8999Z"/>
<path id="path1_fill" fill-rule="evenodd" d="M 18.8663 217.468C 18.8663 230.722 21.7537 238.561 28.3337 243.172L 45.4654 244.664L 48.2479 242.322C 51.9479 239.207 55.8805 232.856 59.4707 224.196L 62.4127 217.1L 71.9956 217.078L 81.5786 217.055L 84.4054 225.035C 88.0753 235.395 90.0927 239.334 93.2323 242.268L 95.7939 244.664L 115.224 244.653L 117.507 242.856C 122.226 239.142 122.79 236.852 122.6 222.183L 122.426 208.763L 126.049 207.793C 137.523 204.72 142.702 194.952 140.506 180.525C 137.903 163.432 124.895 135.06 111.534 117.337L 106.056 110.07L 108.602 108.753C 116.052 104.898 123.991 93.3994 127.046 82.0369C 129.753 71.9734 129.71 52.9564 126.966 45.8011C 126.7 45.1068 127.648 44.3136 129.46 43.7154C 132.546 42.6964 136.901 38.6318 138.778 35.0179C 140.591 31.5287 140.151 23.1142 137.912 18.4221C 132.91 7.94435 121.538 1.81376 112.586 4.76961C 109.765 5.70107 104.058 10.9587 103.257 13.365C 103.027 14.0536 100.807 13.4207 96.4612 11.4278C 80.3706 4.0495 61.6989 3.8302 46.6756 10.8431C 42.2898 12.8904 41.2862 13.108 41.2862 12.0119C 41.2862 9.53654 37.7796 4.38481 34.6206 2.21913C 30.5779 -0.55232 22.7214 -0.758366 17.6098 1.77303C 13.0979 4.00745 8.29357 9.06179 5.88458 14.1085C 3.64482 18.8005 3.20549 27.215 5.01813 30.7042C 6.86171 34.2529 11.2295 38.3759 14.1761 39.3489L 16.9399 40.2614L 15.4305 45.1885C 12.8931 53.4715 12.6139 56.2466 14.162 57.7955C 17.2668 60.9018 19.324 58.977 21.1167 51.2886C 24.9815 34.7137 37.7858 21.0261 54.652 15.4396C 64.5373 12.1654 77.5342 12.1654 87.4196 15.4396C 109.985 22.9137 123.932 43.8538 121.986 67.3376C 120.758 82.1511 117.388 90.959 110.191 98.1592C 102.106 106.248 89.3429 110.17 71.0357 110.193C 41.8921 110.228 25.9727 99.9321 21.486 78.1468C 20.1034 71.4331 19.2833 70.2212 16.3532 70.562C 14.2431 70.8074 14.1288 71.0755 14.2212 75.5663C 14.4331 85.8597 21.4917 99.6854 29.8203 106.12C 32.3288 108.059 34.3827 110.069 34.3845 110.589C 34.3863 111.109 33.6149 112.234 32.6703 113.089C 30.1879 115.336 21.429 128.447 17.5188 135.767C 13.9444 142.459 14.0107 144.715 17.7986 145.282C 19.831 145.586 20.5944 144.639 26.704 134.232C 32.9388 123.612 35.0449 121.429 30.8641 129.919C 23.263 145.354 16.8494 160.025 13.8919 168.742C 11.3137 176.34 10.8066 179.052 10.7463 185.565C 10.6856 192.115 10.9733 193.836 12.5855 196.565C 14.7729 200.268 14.0886 200.733 10.8593 197.739C 4.66273 191.993 5.88077 179.655 14.771 158.113C 18.2492 149.685 18.2585 149.633 16.569 147.942C 15.4586 146.83 14.3268 146.452 13.2993 146.847C 11.3356 147.601 6.97487 157.007 3.34879 168.31C -1.71136 184.084 -1.0191 196.078 5.30428 202.189C 8.20817 204.996 14.7589 208.376 17.3572 208.408C 18.6972 208.425 18.8663 209.44 18.8663 217.468ZM 31.7871 20.2251C 30.3568 21.2831 27.2171 24.6561 24.81 27.7206C 22.4029 30.7851 19.9838 33.2782 19.4343 33.2586C 17.2549 33.1849 12.9146 30.7487 12.0357 29.1057C 10.5579 26.343 10.9424 19.7398 12.7923 16.1119C 16.2191 9.39146 24.0151 5.25589 29.2036 7.40611C 34.973 9.79707 36.3887 16.8213 31.7871 20.2251ZM 127.906 36.385C 131.545 34.864 132.691 32.7856 132.691 27.707C 132.691 20.4074 127.629 13.7235 120.477 11.5796C 117.39 10.6543 116.586 10.7301 113.85 12.2037C 112.132 13.1288 110.376 14.9112 109.932 16.1785C 109.209 18.2441 109.628 19.0279 114.078 23.9431C 116.801 26.9499 120.065 31.2538 121.333 33.5072C 122.6 35.7606 123.94 37.6047 124.311 37.6052C 124.682 37.6056 126.3 37.0566 127.906 36.385Z"/>
<path id="path2_fill" d="M 41.0712 62.4541C 39.1144 64.2258 39.0665 66.0252 40.9213 68.0759C 42.6921 70.0337 44.4908 70.0817 46.5404 68.2259C 48.4971 66.4542 48.5451 64.6546 46.6902 62.604C 44.9194 60.6462 43.1208 60.5983 41.0712 62.4541Z"/>
<path id="path3_fill" d="M 97.9834 62.4541C 96.0266 64.2258 95.9787 66.0252 97.8335 68.0759C 99.6044 70.0337 101.403 70.0817 103.453 68.2259C 105.409 66.4542 105.457 64.6546 103.602 62.604C 101.832 60.6462 100.033 60.5983 97.9834 62.4541Z"/>
<path id="path4_fill" fill-rule="evenodd" d="M 26.5991 241.702L 30.0139 244.789C 30.0139 244.789 34.0635 245.981 35.8502 246.185C 37.6368 246.389 44.2369 244.782 44.2369 244.782L 47.0569 243.062C 50.6355 240.879 55.7217 233.032 59.2759 224.21C 61.2786 219.24 62.5466 217.217 63.878 216.869C 64.8887 216.604 69.3166 216.624 73.7178 216.914L 81.7199 217.44L 83.4708 222.271C 88.2428 235.439 89.2845 237.587 92.5938 241.078L 96.1108 244.789L 104.216 246.685C 105.102 246.892 106.025 246.895 106.913 246.693L 115.329 244.779L 118.33 241.777C 122.099 238.006 122.479 235.913 122.128 220.837L 121.844 208.662L 124.862 208.112C 129.4 207.286 134.983 203.683 137.408 200.018C 140.249 195.723 141.315 188.819 140.339 181.041C 138.344 165.146 124.727 135.183 111.562 117.72L 105.966 110.297L 108.806 108.541C 113.165 105.846 120.118 98.0594 122.676 93.0091C 128.909 80.7016 130.696 61.7571 127.008 47.0592C 126.492 44.9993 126.803 44.6193 130.27 43.085C 136.052 40.5263 138.943 36.1794 139.375 29.3955C 139.818 22.4243 137.969 17.2477 133.174 12.0441C 126.876 5.20728 119.192 2.72337 112.386 5.3237C 108.871 6.66705 104.009 11.0322 103.147 13.6192C 102.893 14.3814 101.178 13.926 97.2264 12.0473C 81.5018 4.57009 64.2866 4.03358 48.2083 10.5197L 41.297 13.3077L 40.7442 10.7896C 39.9352 7.1045 35.6543 2.68336 31.2749 1.01002C 24.4694 -1.59032 16.7857 0.893713 10.487 7.73041C 5.69278 12.9341 3.84301 18.1106 4.28669 25.0818C 4.71682 31.8404 7.6069 36.2115 13.3159 38.7381C 15.383 39.653 17.0693 40.4802 17.0631 40.5768C 17.057 40.6732 16.281 43.2131 15.3385 46.221C 13.1967 53.0571 13.119 57.2063 15.1118 58.3221C 17.7054 59.7743 19.4693 57.9201 20.5391 52.6174C 22.3494 43.6436 26.9654 35.4164 34.2314 28.2134C 41.7657 20.7444 48.4268 16.897 58.1166 14.4175C 84.0504 7.78149 111.254 22.1648 119.851 47.0583C 121.572 52.0414 121.834 54.4225 121.769 64.4773C 121.703 74.753 121.42 76.9231 119.37 82.9107C 114.274 97.7943 105.314 105.485 89.0768 108.914C 80.0643 110.817 62.1199 110.881 53.0341 109.042C 35.6312 105.52 24.9026 95.2485 21.3537 78.7123C 19.9374 72.1129 19.1185 70.5163 17.1495 70.5163C 13.7813 70.5163 13.2296 72.675 14.7679 79.8347C 16.8321 89.4417 21.1811 97.7079 27.1728 103.412C 29.9183 106.026 32.9148 108.581 33.8317 109.091C 35.4033 109.963 35.2985 110.256 32.0031 114.207C 27.7399 119.318 19.8294 131.437 16.7271 137.609C 14.8901 141.264 14.6275 142.499 15.3858 143.916C 17.2519 147.405 19.7961 145.634 24.3973 137.645C 31.0572 126.082 34.9894 120.773 35.6394 122.467C 35.9374 123.244 35.3377 125.752 34.3065 128.041C 27.2517 143.698 24.4519 155.848 21.8163 182.24C 20.2891 197.534 20.0583 200.959 18.7687 201.42C 18.2962 201.589 17.6815 201.36 16.8088 201.171C 4.52339 198.51 3.56744 184.882 13.8991 159.692C 18.1278 149.382 18.1073 146.963 13.795 147.464C 11.7098 147.706 11.0729 148.782 7.00175 158.947C 1.68058 172.231 -0.613385 182.522 0.1396 189.73C 1.1911 199.795 6.93834 206.354 16.2418 208.106L 19.23 208.669L 19.2841 218.748C 19.3497 230.988 21.2122 236.833 26.5991 241.702ZM 115.717 234.659L 112.946 237.136C 110.628 239.208 109.424 239.613 105.563 239.613C 102.199 239.613 100.334 239.128 98.6729 237.821C 95.7796 235.544 95.143 234.317 91.1168 223.255L 87.8075 214.163L 89.9511 212.581C 91.1301 211.711 92.0947 210.269 92.0947 209.376C 92.0947 206.498 89.5384 206.035 83.0405 207.737C 75.3588 209.748 65.7395 209.752 58.0451 207.747C 51.4589 206.03 50.1696 206.161 49.3878 208.626C 48.6845 210.842 49.5178 211.957 52.9504 213.392L 55.8485 214.604L 54.1518 218.91C 51.1385 226.559 47.4053 233.29 44.6442 236.052C 42.3435 238.354 41.3164 238.749 37.6368 238.749C 34.0516 238.749 32.9134 238.337 30.8802 236.303C 27.7841 233.205 25.6972 226.243 25.6972 219.011C 25.6972 211.528 28.7909 179.146 30.9118 164.43C 31.8448 157.955 33.545 149.802 34.69 146.312C 37.9472 136.383 41.8692 127.873 43.1113 128.037C 43.7303 128.119 46.953 128.808 50.2729 129.569C 65.0748 132.957 86.0001 131.773 94.4087 127.071L 98.066 125.026L 99.7804 129.611C 103.029 138.299 106.713 150.334 107.967 156.358C 111.237 172.072 115.353 208.946 115.573 224.5L 115.717 234.659ZM 131.853 195.35C 130.899 196.866 129.227 198.684 128.137 199.39C 127.048 200.095 125.106 200.93 123.822 201.246C 123.723 201.271 123.628 201.295 123.536 201.318C 122.947 201.468 122.502 201.581 122.141 201.454C 121.027 201.062 120.718 198.381 119.456 187.418L 119.257 185.691C 115.898 156.589 112.809 143.598 103.667 120.123C 102.621 117.44 106.812 122.682 111.419 129.82C 117.064 138.569 126.656 158.532 130.05 168.596C 133.779 179.654 134.548 191.066 131.853 195.35ZM 94.6818 116.894C 94.6818 119.274 92.3333 121.053 87.1976 122.563C 84.7412 123.286 79.6065 124.149 75.7872 124.483C 68.2613 125.139 67.4835 124.728 68.0977 120.412C 68.3647 118.535 68.9506 118.359 78.0374 117.413C 83.3483 116.86 89.2658 116.142 91.1876 115.817C 94.2701 115.296 94.6818 115.423 94.6818 116.894ZM 61.0518 117.489L 61.0518 120.748C 61.0518 123.75 60.8655 123.998 58.6805 123.911C 51.9423 123.643 42.5316 120.421 41.1968 117.925C 39.9306 115.558 41.0936 113.403 43.278 114.069C 44.2797 114.374 48.6886 115.268 53.0755 116.056L 61.0518 117.489ZM 128.682 17.1891C 134.039 23.4508 134.396 32.0823 129.459 35.9677C 126.096 38.6143 123.45 38.2575 121.752 34.9286C 119.912 31.3204 112.067 21.5783 110.524 20.9863C 108.469 20.1971 109.186 16.1861 111.862 13.5095C 116.206 9.16281 123.106 10.6723 128.682 17.1891ZM 30.1919 22.2968C 27.3785 25.0769 24.1491 28.714 23.0156 30.3792C 21.774 32.2034 20.2691 33.3875 19.2301 33.3582C 10.1056 33.1 7.67943 21.4084 14.9797 12.8755C 22.2465 4.38158 31.9611 4.80973 34.3618 13.7297L 35.3071 17.242L 30.1919 22.2968Z"/>
<path id="path5_fill" d="M 65.5352 91.2336C 62.0862 90.4164 61.5556 89.9503 62.1902 88.2957C 62.5897 87.254 63.2747 87.185 65.9305 87.9186C 69.0602 88.7832 75.1815 88.5059 80.3239 87.2665C 82.4107 86.7636 82.7346 86.9156 82.4729 88.2753C 81.906 91.22 72.4489 92.8718 65.5352 91.2336Z"/>
<path id="path6_fill" d="M 67.9077 77.8041C 66.164 75.9471 66.039 75.4758 67.1106 74.7977C 68.7232 73.7774 75.756 73.749 77.3461 74.7563C 78.3166 75.3712 78.1153 75.954 76.3074 77.7627C 73.4682 80.6033 70.5496 80.6177 67.9077 77.8041Z"/>
<path id="path7_fill" d="M 13.4377 66.567C 12.7182 64.9871 12.6878 63.9254 13.333 62.9004C 15.2874 59.7952 19.6612 61.137 19.6612 64.8417C 19.6612 68.9815 15.1116 70.2428 13.4377 66.567Z"/>
<path id="path8_stroke_2x" d="M 44.2369 245.282L 96.1107 245.289L 96.1108 244.289L 44.237 244.282L 44.2369 245.282ZM 118.76 185.749C 118.829 186.346 118.895 186.921 118.959 187.475L 119.952 187.361C 119.889 186.806 119.822 186.231 119.753 185.634L 118.76 185.749ZM 30.0139 244.789L 29.3434 245.53L 29.5126 245.683L 29.7315 245.748L 30.0139 244.789ZM 26.5991 241.702L 27.2697 240.96L 27.2697 240.96L 26.5991 241.702ZM 19.2841 218.748L 20.2841 218.743L 20.2841 218.743L 19.2841 218.748ZM 19.23 208.669L 20.23 208.663L 20.2256 207.838L 19.4151 207.686L 19.23 208.669ZM 16.2418 208.106L 16.0567 209.089L 16.0567 209.089L 16.2418 208.106ZM 0.1396 189.73L -0.854988 189.834L -0.854988 189.834L 0.1396 189.73ZM 7.00175 158.947L 6.07345 158.575L 6.07345 158.575L 7.00175 158.947ZM 13.795 147.464L 13.9104 148.457L 13.9105 148.457L 13.795 147.464ZM 13.8991 159.692L 12.9739 159.312L 12.9739 159.312L 13.8991 159.692ZM 16.8088 201.171L 16.5971 202.148L 16.5971 202.148L 16.8088 201.171ZM 21.8163 182.24L 22.8113 182.34L 22.8113 182.34L 21.8163 182.24ZM 34.3065 128.041L 35.2183 128.452L 35.2183 128.452L 34.3065 128.041ZM 35.6394 122.467L 36.5731 122.109L 36.5731 122.109L 35.6394 122.467ZM 24.3973 137.645L 25.2639 138.144L 25.2639 138.144L 24.3973 137.645ZM 15.3858 143.916L 16.2676 143.445L 16.2676 143.445L 15.3858 143.916ZM 16.7271 137.609L 15.8336 137.16L 15.8336 137.16L 16.7271 137.609ZM 32.0031 114.207L 32.7711 114.848L 32.7711 114.848L 32.0031 114.207ZM 33.8317 109.091L 34.3172 108.216L 34.3172 108.216L 33.8317 109.091ZM 27.1728 103.412L 27.8623 102.688L 27.8623 102.688L 27.1728 103.412ZM 14.7679 79.8347L 13.7903 80.0448L 13.7903 80.0448L 14.7679 79.8347ZM 21.3537 78.7123L 22.3315 78.5024L 21.3537 78.7123ZM 53.0341 109.042L 52.8357 110.022L 52.8357 110.022L 53.0341 109.042ZM 89.0768 108.914L 89.2834 109.893L 89.2834 109.893L 89.0768 108.914ZM 119.37 82.9107L 118.424 82.5868L 118.424 82.5868L 119.37 82.9107ZM 121.769 64.4773L 122.769 64.4838L 122.769 64.4838L 121.769 64.4773ZM 119.851 47.0583L 118.906 47.3848L 118.906 47.3848L 119.851 47.0583ZM 58.1166 14.4175L 57.8687 13.4487L 57.8687 13.4487L 58.1166 14.4175ZM 34.2314 28.2134L 34.9354 28.9236L 34.9354 28.9236L 34.2314 28.2134ZM 20.5391 52.6174L 19.5588 52.4196L 19.5588 52.4196L 20.5391 52.6174ZM 15.1118 58.3221L 15.6004 57.4496L 15.6004 57.4495L 15.1118 58.3221ZM 15.3385 46.221L 16.2928 46.52L 16.2928 46.52L 15.3385 46.221ZM 17.0631 40.5768L 16.0652 40.5127L 16.0651 40.5134L 17.0631 40.5768ZM 13.3159 38.7381L 13.7206 37.8237L 13.7206 37.8237L 13.3159 38.7381ZM 4.28669 25.0818L 5.28467 25.0183L 5.28467 25.0183L 4.28669 25.0818ZM 10.487 7.73041L 11.2224 8.40799L 11.2224 8.40799L 10.487 7.73041ZM 31.2749 1.01002L 31.6319 0.0758834L 31.6319 0.0758826L 31.2749 1.01002ZM 40.7442 10.7896L 41.7209 10.5752L 41.7209 10.5752L 40.7442 10.7896ZM 41.297 13.3077L 40.3202 13.5222L 40.5739 14.6777L 41.6711 14.2351L 41.297 13.3077ZM 48.2083 10.5197L 48.5824 11.4471L 48.5824 11.4471L 48.2083 10.5197ZM 97.2264 12.0473L 97.6559 11.1442L 97.6559 11.1442L 97.2264 12.0473ZM 103.147 13.6192L 104.095 13.9353L 104.095 13.9353L 103.147 13.6192ZM 112.386 5.3237L 112.029 4.38957L 112.029 4.38957L 112.386 5.3237ZM 133.174 12.0441L 132.439 12.7216L 132.439 12.7217L 133.174 12.0441ZM 139.375 29.3955L 138.377 29.332L 138.377 29.332L 139.375 29.3955ZM 130.27 43.085L 129.866 42.1706L 129.866 42.1706L 130.27 43.085ZM 127.008 47.0592L 126.038 47.3025L 126.038 47.3025L 127.008 47.0592ZM 122.676 93.0091L 123.568 93.4609L 123.568 93.4609L 122.676 93.0091ZM 108.806 108.541L 109.332 109.391L 109.332 109.391L 108.806 108.541ZM 105.966 110.297L 105.441 109.446L 104.508 110.023L 105.168 110.899L 105.966 110.297ZM 111.562 117.72L 112.361 117.118L 112.361 117.118L 111.562 117.72ZM 140.339 181.041L 141.331 180.917L 141.331 180.917L 140.339 181.041ZM 137.408 200.018L 136.574 199.466L 136.574 199.466L 137.408 200.018ZM 124.862 208.112L 125.042 209.096L 125.042 209.096L 124.862 208.112ZM 121.844 208.662L 121.665 207.679L 120.825 207.832L 120.845 208.686L 121.844 208.662ZM 122.128 220.837L 123.128 220.813L 123.128 220.813L 122.128 220.837ZM 118.33 241.777L 119.037 242.484L 119.037 242.484L 118.33 241.777ZM 115.329 244.779L 115.551 245.755L 115.832 245.691L 116.036 245.486L 115.329 244.779ZM 92.5938 241.078L 93.3196 240.39L 93.3196 240.39L 92.5938 241.078ZM 83.4708 222.271L 84.411 221.93L 84.411 221.93L 83.4708 222.271ZM 81.7199 217.44L 82.6601 217.099L 82.4375 216.485L 81.7855 216.442L 81.7199 217.44ZM 73.7178 216.914L 73.7834 215.916L 73.7834 215.916L 73.7178 216.914ZM 63.878 216.869L 64.1311 217.836L 64.1311 217.836L 63.878 216.869ZM 59.2759 224.21L 58.3484 223.837L 58.3484 223.837L 59.2759 224.21ZM 47.0569 243.062L 47.5777 243.916L 47.5777 243.916L 47.0569 243.062ZM 44.2369 244.782L 44.4734 245.754L 44.6247 245.717L 44.7577 245.636L 44.2369 244.782ZM 96.1108 244.789L 95.385 245.477L 95.5912 245.694L 95.883 245.762L 96.1108 244.789ZM 112.946 237.136L 113.613 237.881L 113.613 237.881L 112.946 237.136ZM 115.717 234.659L 116.383 235.405L 116.723 235.101L 116.717 234.645L 115.717 234.659ZM 115.573 224.5L 114.573 224.514L 114.573 224.514L 115.573 224.5ZM 107.967 156.358L 108.946 156.155L 108.946 156.155L 107.967 156.358ZM 99.7804 129.611L 100.717 129.26L 100.717 129.26L 99.7804 129.611ZM 98.066 125.026L 99.0026 124.676L 98.5946 123.585L 97.5779 124.154L 98.066 125.026ZM 94.4087 127.071L 93.9207 126.199L 93.9207 126.199L 94.4087 127.071ZM 50.2729 129.569L 50.4961 128.594L 50.4961 128.594L 50.2729 129.569ZM 43.1113 128.037L 43.2428 127.046L 43.2427 127.046L 43.1113 128.037ZM 34.69 146.312L 33.7398 146L 33.7398 146L 34.69 146.312ZM 30.9118 164.43L 29.922 164.287L 29.922 164.287L 30.9118 164.43ZM 30.8802 236.303L 31.5875 235.596L 31.5875 235.596L 30.8802 236.303ZM 44.6442 236.052L 43.9369 235.345L 43.9369 235.345L 44.6442 236.052ZM 54.1518 218.91L 55.0822 219.277L 55.0822 219.277L 54.1518 218.91ZM 55.8485 214.604L 56.7789 214.97L 57.1379 214.059L 56.2342 213.681L 55.8485 214.604ZM 52.9504 213.392L 53.3361 212.47L 53.3361 212.47L 52.9504 213.392ZM 49.3878 208.626L 50.3409 208.928L 50.3409 208.928L 49.3878 208.626ZM 58.0451 207.747L 58.2973 206.779L 58.2973 206.779L 58.0451 207.747ZM 83.0405 207.737L 83.2938 208.704L 83.2939 208.704L 83.0405 207.737ZM 89.9511 212.581L 89.3574 211.776L 89.3574 211.776L 89.9511 212.581ZM 87.8075 214.163L 87.2138 213.358L 86.6121 213.802L 86.8678 214.505L 87.8075 214.163ZM 91.1168 223.255L 92.0565 222.913L 92.0565 222.913L 91.1168 223.255ZM 98.6729 237.821L 98.0544 238.607L 98.0544 238.607L 98.6729 237.821ZM 128.137 199.39L 128.681 200.229L 128.681 200.229L 128.137 199.39ZM 131.853 195.35L 131.006 194.818L 131.006 194.818L 131.853 195.35ZM 130.05 168.596L 130.997 168.276L 130.997 168.276L 130.05 168.596ZM 111.419 129.82L 112.259 129.278L 112.259 129.278L 111.419 129.82ZM 103.667 120.123L 104.598 119.761L 104.598 119.761L 103.667 120.123ZM 119.257 185.691L 120.25 185.577L 120.25 185.577L 119.257 185.691ZM 123.822 201.246L 123.583 200.275L 123.583 200.275L 123.822 201.246ZM 87.1976 122.563L 87.4797 123.522L 87.4797 123.522L 87.1976 122.563ZM 91.1876 115.817L 91.3542 116.803L 91.3543 116.803L 91.1876 115.817ZM 78.0374 117.413L 77.9339 116.418L 77.9339 116.418L 78.0374 117.413ZM 68.0977 120.412L 67.1077 120.271L 67.1077 120.271L 68.0977 120.412ZM 75.7872 124.483L 75.7002 123.486L 75.7002 123.486L 75.7872 124.483ZM 61.0518 117.489L 62.0518 117.489L 62.0518 116.653L 61.2287 116.505L 61.0518 117.489ZM 53.0755 116.056L 53.2524 115.072L 53.2524 115.072L 53.0755 116.056ZM 43.278 114.069L 42.9866 115.025L 42.9866 115.025L 43.278 114.069ZM 41.1968 117.925L 40.315 118.397L 40.315 118.397L 41.1968 117.925ZM 58.6805 123.911L 58.6407 124.91L 58.6407 124.91L 58.6805 123.911ZM 129.459 35.9677L 128.841 35.1819L 128.841 35.1819L 129.459 35.9677ZM 128.682 17.1891L 129.442 16.539L 129.442 16.539L 128.682 17.1891ZM 111.862 13.5095L 112.569 14.2165L 112.569 14.2165L 111.862 13.5095ZM 110.524 20.9863L 110.166 21.9198L 110.166 21.9199L 110.524 20.9863ZM 121.752 34.9286L 120.861 35.3829L 120.861 35.3829L 121.752 34.9286ZM 23.0156 30.3792L 23.8423 30.9419L 23.8423 30.9419L 23.0156 30.3792ZM 30.1919 22.2968L 29.489 21.5855L 29.489 21.5855L 30.1919 22.2968ZM 35.3071 17.242L 36.01 17.9533L 36.424 17.5442L 36.2727 16.9822L 35.3071 17.242ZM 34.3618 13.7297L 35.3275 13.4699L 35.3275 13.4698L 34.3618 13.7297ZM 14.9797 12.8755L 15.7396 13.5256L 15.7396 13.5256L 14.9797 12.8755ZM 19.2301 33.3582L 19.2018 34.3578L 19.2018 34.3578L 19.2301 33.3582ZM 65.5352 91.2336L 65.7658 90.2605L 65.7658 90.2605L 65.5352 91.2336ZM 62.1902 88.2957L 61.2565 87.9376L 61.2565 87.9376L 62.1902 88.2957ZM 65.9305 87.9186L 66.1968 86.9548L 66.1968 86.9548L 65.9305 87.9186ZM 80.3239 87.2665L 80.5582 88.2387L 80.5582 88.2387L 80.3239 87.2665ZM 82.4729 88.2753L 83.4548 88.4644L 83.4548 88.4643L 82.4729 88.2753ZM 67.9077 77.8041L 67.1787 78.4886L 67.1787 78.4886L 67.9077 77.8041ZM 67.1106 74.7977L 66.5759 73.9527L 66.5759 73.9527L 67.1106 74.7977ZM 77.3461 74.7563L 77.8813 73.9116L 77.8813 73.9116L 77.3461 74.7563ZM 40.9213 68.0759L 41.663 67.4051L 41.6629 67.405L 40.9213 68.0759ZM 41.0712 62.4541L 41.7423 63.1954L 41.7423 63.1954L 41.0712 62.4541ZM 46.6902 62.604L 45.9486 63.2748L 45.9486 63.2749L 46.6902 62.604ZM 46.5404 68.2259L 47.2116 68.9672L 47.2116 68.9672L 46.5404 68.2259ZM 97.8335 68.0759L 98.5752 67.4051L 98.5752 67.405L 97.8335 68.0759ZM 97.9834 62.4541L 98.6546 63.1954L 98.6546 63.1954L 97.9834 62.4541ZM 103.602 62.604L 102.861 63.2748L 102.861 63.2749L 103.602 62.604ZM 103.453 68.2259L 102.781 67.4846L 102.781 67.4846L 103.453 68.2259ZM 13.4377 66.567L 12.5276 66.9814L 12.5276 66.9815L 13.4377 66.567ZM 13.333 62.9004L 14.1793 63.4331L 14.1793 63.433L 13.333 62.9004ZM 18.7687 201.42L 18.4321 200.478L 18.4321 200.478L 18.7687 201.42ZM 122.141 201.454L 121.809 202.398L 121.809 202.398L 122.141 201.454ZM 119.456 187.418L 120.449 187.303L 120.449 187.303L 119.456 187.418ZM 123.536 201.318L 123.782 202.287L 123.782 202.287L 123.536 201.318ZM 104.216 246.685L 103.988 247.658L 104.216 246.685ZM 106.913 246.693L 106.691 245.718L 106.913 246.693ZM 30.6845 244.047L 27.2697 240.96L 25.9286 242.444L 29.3434 245.53L 30.6845 244.047ZM 27.2697 240.96C 24.6605 238.611 22.993 236.152 21.8989 232.686C 20.7775 229.184 20.3154 224.813 20.2841 218.743L 18.2841 218.754C 18.3185 224.924 18.8203 229.595 19.9933 233.293C 21.1936 237.025 23.1508 239.923 25.9286 242.444L 27.2697 240.96ZM 20.2841 218.743L 20.23 208.663L 18.23 208.674L 18.2841 218.754L 20.2841 218.743ZM 19.4151 207.686L 16.4269 207.123L 16.0567 209.089L 19.045 209.651L 19.4151 207.686ZM 16.4269 207.123C 7.59772 205.46 2.14411 199.293 1.13419 189.626L -0.854988 189.834C 0.23808 200.297 6.27896 207.247 16.0567 209.089L 16.4269 207.123ZM 1.13419 189.626C 0.40773 182.672 2.62128 172.572 7.93005 159.318L 6.07345 158.575C 0.739876 171.89 -1.6345 182.372 -0.854988 189.834L 1.13419 189.626ZM 7.93005 159.318C 9.97849 154.204 11.1237 151.481 12.0038 149.994C 12.4367 149.262 12.7526 148.924 13.0028 148.748C 13.2644 148.544 13.4584 148.507 13.9104 148.457L 13.6796 146.47C 13.089 146.541 12.4214 146.73 11.85 147.114C 11.267 147.525 10.7783 148.137 10.2824 148.975C 9.30504 150.627 8.09618 153.525 6.07345 158.575L 7.93005 159.318ZM 13.9105 148.457C 14.9563 148.335 15.4783 148.435 15.72 148.576C 15.8451 148.649 16.0438 148.814 16.05 149.532C 16.0564 150.284 15.8381 151.413 15.3194 153.061C 14.8031 154.702 14.0262 156.747 12.9739 159.312L 14.8243 160.071C 15.8864 157.482 16.6926 155.358 17.2271 153.661C 17.7591 151.971 18.0591 150.594 18.0499 149.515C 18.0404 148.402 17.6897 147.412 16.7303 146.85C 15.8875 146.357 14.7898 146.341 13.6796 146.47L 13.9105 148.457ZM 12.9739 159.312C 7.79617 171.937 5.37489 181.821 5.875 188.95C 6.12655 192.536 7.12157 195.491 8.94113 197.739C 10.7674 199.995 13.3491 201.445 16.5971 202.148L 17.0205 200.193C 14.1258 199.566 11.981 198.315 10.4956 196.48C 9.00351 194.637 8.10176 192.112 7.8701 188.81C 7.4038 182.163 9.67039 172.638 14.8243 160.071L 12.9739 159.312ZM 22.8113 182.34C 25.4386 156.01 28.1994 144.017 35.2183 128.452L 33.3948 127.63C 26.3041 143.379 23.4651 155.686 20.8212 182.141L 22.8113 182.34ZM 35.2183 128.452C 35.7524 127.263 36.1905 125.975 36.444 124.92C 36.5716 124.384 36.6636 123.85 36.6987 123.424C 36.7315 123.013 36.7316 122.522 36.5731 122.109L 34.7057 122.825C 34.6748 122.777 34.7323 122.954 34.7051 123.264C 34.6793 123.599 34.6127 123.981 34.4988 124.455C 34.2691 125.42 33.8918 126.53 33.3948 127.63L 35.2183 128.452ZM 36.5731 122.109C 36.4892 121.89 36.3448 121.638 36.0927 121.442C 35.8742 121.293 35.4676 121.165 35.2124 121.159C 34.6928 121.175 34.2433 121.465 33.9301 121.709C 33.2501 122.24 32.4211 123.203 31.4685 124.489C 29.5494 127.081 26.8704 131.348 23.5308 137.146L 25.2639 138.144C 28.5842 132.379 31.2012 128.209 33.0757 125.68C 34.0199 124.405 34.7121 123.636 35.1603 123.286C 35.4112 123.09 35.4275 123.153 35.2734 123.158C 35.156 123.162 35.0012 123.126 34.8657 123.021C 34.7458 122.928 34.7084 122.832 34.7057 122.825L 36.5731 122.109ZM 23.5308 137.146C 21.2153 141.167 19.5282 143.406 18.2947 144.264C 17.7156 144.667 17.418 144.641 17.2634 144.587C 17.047 144.512 16.6934 144.241 16.2676 143.445L 14.504 144.388C 15.0112 145.336 15.6755 146.152 16.6048 146.476C 17.5958 146.821 18.5717 146.508 19.4371 145.906C 21.0925 144.754 22.9781 142.113 25.2639 138.144L 23.5308 137.146ZM 16.2676 143.445C 15.9501 142.876 15.8826 142.557 16.0613 141.81C 16.2317 141.008 16.6989 139.892 17.6205 138.058L 15.8336 137.16C 14.9182 138.981 14.3356 140.309 14.1051 141.394C 13.8828 142.532 14.0632 143.539 14.504 144.388L 16.2676 143.445ZM 17.6205 138.058C 20.6962 131.935 28.5439 119.913 32.7711 114.848L 31.2352 113.567C 26.9359 118.724 18.9626 130.938 15.8336 137.16L 17.6205 138.058ZM 32.7711 114.848C 33.5971 113.857 34.2374 113.079 34.6993 112.465C 35.1504 111.865 35.5077 111.325 35.6842 110.831C 35.8897 110.256 35.8796 109.643 35.4711 109.101C 35.1633 108.692 34.6801 108.418 34.3172 108.216L 33.3462 109.965C 33.7147 110.169 33.9122 110.382 33.8738 110.304C 33.7846 110.186 33.8371 110.057 33.8009 110.158C 33.7357 110.34 33.5471 110.669 33.1008 111.263C 32.6655 111.842 32.0569 112.582 31.2352 113.567L 32.7711 114.848ZM 34.3172 108.216C 33.9631 108.02 33.0636 107.326 31.8368 106.28C 30.64 105.259 29.2249 103.985 27.8623 102.688L 26.4832 104.137C 27.8662 105.453 29.322 106.764 30.5391 107.802C 31.7262 108.814 32.7834 109.652 33.3462 109.965L 34.3172 108.216ZM 27.8623 102.688C 22.0418 97.1466 17.7756 89.0729 15.7456 79.6247L 13.7903 80.0448C 15.8885 89.8106 20.3205 98.2692 26.4832 104.137L 27.8623 102.688ZM 15.7456 79.6247C 14.9693 76.0114 14.7881 73.9104 15.0877 72.7382C 15.2217 72.2136 15.4318 71.9628 15.6712 71.8128C 15.9457 71.6407 16.395 71.5163 17.1495 71.5163L 17.1495 69.5163C 16.2199 69.5163 15.3373 69.6617 14.609 70.1182C 13.8458 70.5966 13.3825 71.333 13.1499 72.243C 12.7162 73.9402 13.0283 76.4984 13.7903 80.0448L 15.7456 79.6247ZM 17.1495 71.5163C 17.5255 71.5095 17.6611 71.5321 17.8797 71.6986C 18.0659 71.8238 18.2997 72.0708 18.5691 72.5959C 19.1268 73.6832 19.6632 75.6008 20.376 78.9221L 22.3315 78.5024C 21.628 75.2243 21.0467 73.044 20.3486 71.6831C 19.9901 70.9842 19.5615 70.4195 18.9961 70.0391C 18.4631 69.7 17.758 69.5231 17.1495 69.5163L 17.1495 71.5163ZM 20.376 78.9221C 24.0136 95.8717 35.0682 106.426 52.8357 110.022L 53.2324 108.062C 36.1943 104.613 25.7916 94.6252 22.3315 78.5024L 20.376 78.9221ZM 52.8357 110.022C 62.0544 111.888 80.1366 111.824 89.2834 109.893L 88.8702 107.936C 79.992 109.811 62.1855 109.874 53.2324 108.062L 52.8357 110.022ZM 89.2834 109.893C 97.5025 108.152 104.028 105.266 109.053 100.967C 114.067 96.6473 117.726 90.7815 120.316 83.2346L 118.424 82.5868C 115.919 89.9235 112.549 95.3449 107.75 99.4492C 102.962 103.574 96.8888 106.248 88.8702 107.936L 89.2834 109.893ZM 120.316 83.2346C 122.394 77.1508 122.7 74.8209 122.769 64.4838L 120.769 64.4708C 120.705 74.6851 120.447 76.6955 118.424 82.5868L 120.316 83.2346ZM 122.769 64.4838C 122.834 54.3991 122.574 51.8796 120.796 46.7319L 118.906 47.3848C 120.57 52.2032 120.834 54.4459 120.769 64.4709L 122.769 64.4838ZM 120.796 46.7319C 112.025 21.3336 84.2935 6.68706 57.8687 13.4487L 58.3645 15.3863C 83.8073 8.87592 110.483 22.9961 118.906 47.3848L 120.796 46.7319ZM 57.8687 13.4487C 48.0492 15.971 41.1586 19.9498 33.5274 27.5033L 34.9354 28.9236C 42.3728 21.539 48.8043 17.823 58.3645 15.3863L 57.8687 13.4487ZM 33.5274 27.5033C 26.1697 34.8108 21.4118 43.2959 19.5588 52.4196L 21.5193 52.8151C 23.2869 43.9914 27.7612 36.0221 34.9354 28.9236L 33.5274 27.5033ZM 19.5588 52.4196C 19.0285 55.0486 18.3615 56.5892 17.6724 57.3136C 17.3567 57.6454 17.0724 57.7683 16.808 57.7936C 16.5254 57.8208 16.134 57.7483 15.6004 57.4496L 14.6233 59.1946C 15.3864 59.6219 16.1881 59.8623 16.9991 59.7845C 17.8283 59.7049 18.5382 59.3051 19.1214 58.6921C 20.23 57.5268 20.9799 55.4889 21.5193 52.8151L 19.5588 52.4196ZM 15.6004 57.4495C 15.1216 57.1815 14.6378 56.3967 14.6745 54.4354C 14.7068 52.4942 15.2362 49.8879 16.2928 46.52L 14.3843 45.9221C 13.2991 49.3902 12.7187 52.2765 12.6749 54.3979C 12.6355 56.4992 13.1092 58.3469 14.6233 59.1946L 15.6004 57.4495ZM 16.2928 46.52C 16.7645 45.0145 17.1952 43.6242 17.5083 42.5993C 17.6651 42.0863 17.7934 41.6614 17.8825 41.36C 17.9274 41.2082 17.964 41.0822 17.989 40.9929C 18.0019 40.9465 18.0142 40.9011 18.0224 40.8689C 18.0271 40.8502 18.0335 40.8233 18.0376 40.805C 18.0434 40.7773 18.056 40.6977 18.0611 40.6402L 16.0651 40.5134C 16.072 40.4047 16.0998 40.314 16.0838 40.3771C 16.0795 40.3942 16.0735 40.4162 16.0629 40.4543C 16.0406 40.5341 16.0081 40.6459 15.9647 40.7927C 15.8772 41.0886 15.7514 41.5049 15.5956 42.0149C 15.2836 43.0361 14.855 44.4197 14.3843 45.9221L 16.2928 46.52ZM 18.0611 40.6408C 18.0834 40.2923 17.9205 40.0533 17.8802 39.9952C 17.837 39.937 17.7601 39.8509 17.7241 39.8164C 17.6751 39.7726 17.5969 39.7123 17.5504 39.6802C 17.4764 39.6305 17.365 39.5637 17.2571 39.5035C 17.0529 39.3901 16.7552 39.2372 16.4075 39.0666C 15.7186 38.7286 14.7623 38.2848 13.7206 37.8237L 12.9112 39.6526C 13.9366 40.1063 14.857 40.5335 15.5265 40.8621C 15.858 41.0247 16.11 41.1539 16.2848 41.2513C 16.3664 41.2966 16.4019 41.3174 16.427 41.3349C 16.4373 41.3419 16.4078 41.3233 16.3655 41.2841C 16.3463 41.2663 16.2927 41.2156 16.2374 41.136C 16.2032 41.0868 16.0432 40.8552 16.0652 40.5127L 18.0611 40.6408ZM 13.7206 37.8237C 10.981 36.6204 9.05046 35.0765 7.65588 32.9455C 6.23781 30.8203 5.48618 28.2853 5.28467 25.0183L 3.28871 25.1453C 3.51733 28.6369 4.4258 31.6668 5.98756 34.0485C 7.57281 36.4243 9.94184 38.3293 12.9112 39.6526L 13.7206 37.8237ZM 5.28467 25.0183C 4.85859 18.3235 6.61055 13.4138 11.2224 8.40799L 9.75153 7.05283C 4.77501 12.4544 2.82744 17.8976 3.28871 25.1453L 5.28467 25.0183ZM 11.2224 8.40799C 17.3386 1.76939 24.6106 -0.465862 30.918 1.94415L 31.6319 0.0758826C 24.3283 -2.71477 16.2328 0.0180351 9.75153 7.05283L 11.2224 8.40799ZM 30.918 1.94415C 32.9948 2.72944 34.9799 4.13038 36.63 5.84101C 38.2767 7.54165 39.4173 9.40885 39.7674 11.004L 41.7209 10.5752C 41.2621 8.48523 39.8577 6.29932 38.0669 4.44978C 36.2795 2.61023 33.9345 0.963929 31.6319 0.0758834L 30.918 1.94415ZM 39.7674 11.004L 40.3202 13.5222L 42.2737 13.0933L 41.7209 10.5752L 39.7674 11.004ZM 41.6711 14.2351L 48.5824 11.4471L 47.8342 9.5923L 40.9229 12.3804L 41.6711 14.2351ZM 48.5824 11.4471C 64.4 5.06614 81.3238 5.59274 96.797 12.9504L 97.6559 11.1442C 81.6798 3.54743 64.1733 3.00102 47.8342 9.5923L 48.5824 11.4471ZM 96.797 12.9504C 98.7967 13.9008 100.299 14.5178 101.316 14.7901C 101.83 14.9264 102.347 15.0126 102.805 14.9502C 103.329 14.8789 103.879 14.5835 104.095 13.9353L 102.198 13.3031C 102.229 13.2113 102.295 13.1093 102.397 13.036C 102.487 12.9716 102.552 12.9662 102.535 12.9685C 102.477 12.9764 102.271 12.9742 101.83 12.8571C 100.938 12.6226 99.6073 12.0725 97.6559 11.1442L 96.797 12.9504ZM 104.095 13.9353C 104.438 12.9056 105.695 11.3151 107.439 9.7492C 109.152 8.21173 111.142 6.86968 112.743 6.25783L 112.029 4.38957C 110.115 5.12107 107.916 6.6333 106.103 8.261C 104.322 9.86033 102.717 11.7459 102.198 13.3031L 104.095 13.9353ZM 112.743 6.25783C 119.051 3.84782 126.323 6.08296 132.439 12.7216L 133.91 11.3665C 127.429 4.33159 119.333 1.59892 112.029 4.38957L 112.743 6.25783ZM 132.439 12.7217C 137.051 17.7274 138.803 22.6372 138.377 29.332L 140.373 29.459C 140.834 22.2113 138.886 16.7681 133.91 11.3665L 132.439 12.7217ZM 138.377 29.332C 138.174 32.6115 137.423 35.1456 135.996 37.2709C 134.593 39.403 132.643 40.9503 129.866 42.1706L 130.675 43.9995C 133.679 42.661 136.066 40.7555 137.661 38.3785C 139.234 35.9947 140.143 32.9633 140.373 29.459L 138.377 29.332ZM 129.866 42.1706C 128.99 42.558 128.28 42.8893 127.739 43.1901C 127.194 43.4939 126.715 43.8229 126.373 44.2406C 125.58 45.2064 125.785 46.2906 126.038 47.3025L 127.978 46.8159C 127.715 45.768 127.818 45.6322 127.919 45.5095C 128.022 45.3829 128.24 45.2005 128.712 44.937C 129.189 44.6707 129.817 44.3792 130.675 43.9995L 129.866 42.1706ZM 126.038 47.3025C 129.673 61.7916 127.897 80.4862 121.783 92.5573L 123.568 93.4609C 129.921 80.9169 131.718 61.7226 127.978 46.8159L 126.038 47.3025ZM 121.783 92.5573C 120.546 95.0088 118.243 98.1121 115.67 100.992C 113.09 103.882 110.338 106.418 108.28 107.69L 109.332 109.391C 111.633 107.968 114.537 105.264 117.162 102.324C 119.794 99.3748 122.247 96.0597 123.568 93.4609L 121.783 92.5573ZM 108.28 107.69L 105.441 109.446L 106.492 111.147L 109.332 109.391L 108.28 107.69ZM 105.168 110.899L 110.764 118.322L 112.361 117.118L 106.765 109.695L 105.168 110.899ZM 110.764 118.322C 117.308 126.999 123.949 138.761 129.229 150.382C 134.515 162.013 138.368 173.369 139.347 181.166L 141.331 180.917C 140.315 172.818 136.362 161.244 131.05 149.554C 125.732 137.855 118.981 125.903 112.361 117.118L 110.764 118.322ZM 139.347 181.166C 140.308 188.826 139.229 195.452 136.574 199.466L 138.242 200.57C 141.268 195.994 142.322 188.813 141.331 180.917L 139.347 181.166ZM 136.574 199.466C 134.308 202.892 128.968 206.348 124.683 207.129L 125.042 209.096C 129.832 208.223 135.659 204.474 138.242 200.57L 136.574 199.466ZM 124.683 207.129L 121.665 207.679L 122.024 209.646L 125.042 209.096L 124.683 207.129ZM 120.845 208.686L 121.128 220.86L 123.128 220.813L 122.844 208.639L 120.845 208.686ZM 121.128 220.86C 121.304 228.432 121.29 232.61 120.79 235.368C 120.329 238.038 119.45 239.247 117.622 241.07L 119.037 242.484C 120.979 240.536 122.173 238.813 122.758 235.725C 123.302 232.724 123.302 228.317 123.128 220.813L 121.128 220.86ZM 117.622 241.07L 114.622 244.073L 116.036 245.486L 119.037 242.484L 117.622 241.07ZM 93.3196 240.39C 90.1767 237.074 89.1946 235.131 84.411 221.93L 82.5307 222.612C 87.291 235.748 88.3924 238.099 91.868 241.766L 93.3196 240.39ZM 84.411 221.93L 82.6601 217.099L 80.7798 217.78L 82.5307 222.612L 84.411 221.93ZM 81.7855 216.442L 73.7834 215.916L 73.6522 217.911L 81.6544 218.437L 81.7855 216.442ZM 73.7834 215.916C 71.5675 215.77 69.3297 215.692 67.531 215.684C 66.6286 215.679 65.816 215.693 65.1738 215.725C 64.5542 215.755 63.9907 215.805 63.6248 215.901L 64.1311 217.836C 64.2706 217.8 64.6396 217.753 65.272 217.722C 65.8819 217.692 66.6409 217.679 67.5219 217.683C 69.2901 217.691 71.4669 217.768 73.6522 217.911L 73.7834 215.916ZM 63.6248 215.901C 62.572 216.177 61.7456 217.056 60.9814 218.275C 60.2167 219.498 59.3602 221.326 58.3484 223.837L 60.2035 224.584C 61.1943 222.124 61.9732 220.455 62.676 219.337C 63.3792 218.215 63.8525 217.909 64.1311 217.836L 63.6248 215.901ZM 58.3484 223.837C 56.5901 228.204 54.4742 232.286 52.3364 235.582C 50.186 238.899 48.1213 241.241 46.5361 242.208L 47.5777 243.916C 49.5711 242.7 51.8388 240.027 54.0147 236.67C 56.2032 233.291 58.4075 229.039 60.2035 224.584L 58.3484 223.837ZM 46.5362 242.208L 43.7162 243.928L 44.7577 245.636L 47.5777 243.916L 46.5362 242.208ZM 96.8366 244.101L 93.3196 240.39L 91.868 241.766L 95.385 245.477L 96.8366 244.101ZM 113.613 237.881L 116.383 235.405L 115.05 233.914L 112.28 236.39L 113.613 237.881ZM 116.717 234.645L 116.573 224.486L 114.573 224.514L 114.717 234.673L 116.717 234.645ZM 116.573 224.486C 116.351 208.884 112.225 171.915 108.946 156.155L 106.988 156.562C 110.25 172.23 114.355 209.009 114.573 224.514L 116.573 224.486ZM 108.946 156.155C 107.682 150.086 103.976 137.977 100.717 129.26L 98.8437 129.961C 102.082 138.62 105.744 150.583 106.988 156.562L 108.946 156.155ZM 100.717 129.26L 99.0026 124.676L 97.1293 125.377L 98.8437 129.961L 100.717 129.26ZM 97.5779 124.154L 93.9207 126.199L 94.8968 127.944L 98.554 125.899L 97.5779 124.154ZM 93.9207 126.199C 89.9223 128.434 82.7788 129.897 74.6818 130.356C 66.6082 130.814 57.8167 130.273 50.4961 128.594L 50.0497 130.543C 57.531 132.253 66.6031 132.814 74.7948 132.352C 82.9631 131.89 90.4865 130.41 94.8968 127.944L 93.9207 126.199ZM 50.4961 128.594C 47.2022 127.84 43.9205 127.136 43.2428 127.046L 42.9799 129.029C 43.5402 129.103 46.7038 129.777 50.0497 130.543L 50.4961 128.594ZM 43.2427 127.046C 42.8672 126.996 42.554 127.123 42.3527 127.238C 42.184 127.338 41.9687 127.511 41.8135 127.667C 41.5355 127.953 41.2038 128.393 40.8865 128.889C 40.2706 129.856 39.53 131.275 38.7481 132.971C 37.1929 136.347 35.3772 141.01 33.7398 146L 35.6402 146.624C 37.26 141.685 39.0338 137.129 40.5645 133.808C 41.3255 132.156 42.0019 130.858 42.5725 129.965C 42.8485 129.531 43.0524 129.256 43.2393 129.069C 43.3166 128.989 43.3698 128.964 43.343 128.975C 43.3372 128.978 43.2002 129.058 42.9799 129.029L 43.2427 127.046ZM 33.7398 146C 32.579 149.544 30.86 157.782 29.922 164.287L 31.9015 164.572C 32.8296 158.129 34.5111 150.061 35.6402 146.624L 33.7398 146ZM 29.922 164.287C 27.7996 179.014 24.6972 211.454 24.6972 219.011L 26.6972 219.011C 26.6972 211.603 29.7822 179.278 31.9015 164.572L 29.922 164.287ZM 24.6972 219.011C 24.6999 222.7 25.2427 226.392 26.1698 229.494C 27.1022 232.605 28.4606 235.297 30.1729 237.01L 31.5875 235.596C 30.2037 234.212 28.9706 231.873 28.0856 228.92C 27.1951 225.959 26.6946 222.554 26.6972 219.011L 24.6972 219.011ZM 30.1729 237.01C 31.2364 238.071 32.2083 238.808 33.3361 239.229C 34.4991 239.65 35.8315 239.749 37.6368 239.749L 37.6368 237.749C 35.8569 237.749 34.8276 237.642 34.0169 237.349C 33.171 237.055 32.5572 236.569 31.5875 235.596L 30.1729 237.01ZM 37.6368 239.749C 39.4834 239.749 40.8246 239.656 42.0168 239.197C 43.2265 238.732 44.1816 237.93 45.3514 236.759L 43.9369 235.345C 42.8061 236.477 42.0973 237.023 41.2984 237.331C 40.4819 237.645 39.4699 237.749 37.6368 237.749L 37.6368 239.749ZM 45.3514 236.759C 48.2679 233.841 52.062 226.943 55.0822 219.277L 53.2214 218.544C 50.215 226.175 46.5427 232.738 43.9369 235.345L 45.3514 236.759ZM 55.0822 219.277L 56.7789 214.97L 54.9181 214.237L 53.2214 218.544L 55.0822 219.277ZM 56.2342 213.681L 53.3361 212.47L 52.5647 214.315L 55.4628 215.526L 56.2342 213.681ZM 53.3361 212.47C 51.6211 211.753 50.7904 211.2 50.4191 210.703C 50.1381 210.328 50.0412 209.873 50.3409 208.928L 48.4346 208.323C 48.0311 209.595 47.9992 210.806 48.8172 211.901C 49.5449 212.874 50.8471 213.597 52.5647 214.315L 53.3361 212.47ZM 50.3409 208.928C 50.5196 208.365 50.6864 208.078 50.8494 207.916C 50.9835 207.783 51.1895 207.659 51.6408 207.613C 52.6679 207.509 54.4453 207.842 57.7929 208.714L 58.2973 206.779C 55.0586 205.935 52.8984 205.475 51.4388 205.623C 50.6468 205.704 49.9722 205.968 49.4388 206.498C 48.9344 207 48.6469 207.654 48.4346 208.323L 50.3409 208.928ZM 57.7929 208.714C 65.6126 210.744 75.4867 210.74 83.2938 208.704L 82.7873 206.77C 75.2309 208.756 65.8664 208.76 58.2973 206.779L 57.7929 208.714ZM 83.2939 208.704C 86.5479 207.852 88.6157 207.604 89.8262 207.823C 90.3969 207.926 90.6707 208.115 90.8165 208.295C 90.9663 208.48 91.0947 208.797 91.0947 209.376L 93.0947 209.376C 93.0947 208.516 92.9037 207.695 92.3711 207.037C 91.8345 206.374 91.0631 206.014 90.1825 205.855C 88.4904 205.549 86.0311 205.92 82.7871 206.77L 83.2939 208.704ZM 91.0947 209.376C 91.0947 209.525 90.9853 209.905 90.6338 210.431C 90.2918 210.948 89.8741 211.4 89.3574 211.776L 90.5449 213.385C 91.2071 212.891 91.8612 212.188 92.2963 211.543C 92.7218 210.907 93.0947 210.12 93.0947 209.376L 91.0947 209.376ZM 89.3574 211.776L 87.2138 213.358L 88.4012 214.967L 90.5449 213.385L 89.3574 211.776ZM 86.8678 214.505L 90.1771 223.597L 92.0565 222.913L 88.7472 213.82L 86.8678 214.505ZM 90.1771 223.597C 92.1926 229.134 93.3828 232.266 94.432 234.293C 95.538 236.398 96.5637 237.431 98.0544 238.607L 99.2913 237.035C 97.8888 235.933 97.1496 235.214 96.2074 233.372C 95.2085 231.45 94.0673 228.437 92.0565 222.913L 90.1771 223.597ZM 98.0544 238.607C 99.9693 240.114 102.098 240.613 105.563 240.613L 105.563 238.613C 102.299 238.613 100.699 238.143 99.2913 237.035L 98.0544 238.607ZM 105.563 240.613C 107.533 240.612 108.96 240.492 110.151 240.1C 111.358 239.684 112.409 238.955 113.613 237.881L 112.28 236.39C 111.165 237.389 110.455 237.899 109.515 238.204C 108.559 238.532 107.454 238.614 105.563 238.613L 105.563 240.613ZM 128.681 200.229C 129.93 199.421 131.696 197.478 132.699 195.883L 131.006 194.818C 130.102 196.255 128.524 197.948 127.594 198.55L 128.681 200.229ZM 132.699 195.883C 134.229 193.451 134.681 189.242 134.358 184.446C 134.03 179.61 132.88 173.867 130.997 168.276L 129.102 168.915C 130.948 174.383 132.047 179.875 132.362 184.58C 132.682 189.326 132.172 192.965 131.006 194.818L 132.699 195.883ZM 130.997 168.276C 127.582 158.155 117.937 138.08 112.259 129.278L 110.578 130.363C 116.192 139.057 125.73 158.909 129.102 168.915L 130.997 168.276ZM 112.259 129.278C 109.943 125.69 107.714 122.554 106.204 120.664C 105.478 119.756 104.821 119.009 104.368 118.687C 104.273 118.62 104.026 118.448 103.701 118.415C 103.503 118.395 103.212 118.421 102.943 118.622C 102.682 118.818 102.578 119.077 102.537 119.247C 102.468 119.54 102.527 119.815 102.558 119.944C 102.594 120.091 102.66 120.293 102.735 120.486L 104.598 119.761C 104.543 119.618 104.519 119.547 104.503 119.48C 104.483 119.394 104.53 119.513 104.484 119.707C 104.455 119.827 104.372 120.051 104.141 120.224C 103.901 120.403 103.649 120.42 103.497 120.405C 103.266 120.381 103.146 120.273 103.21 120.318C 103.392 120.447 103.876 120.954 104.642 121.913C 106.117 123.758 108.287 126.812 110.578 130.363L 112.259 129.278ZM 102.735 120.486C 111.855 143.896 114.913 156.762 118.263 185.806L 120.25 185.577C 116.883 156.416 113.764 143.3 104.598 119.761L 102.735 120.486ZM 124.061 202.217C 125.424 201.879 127.519 200.977 128.681 200.229L 127.594 198.55C 126.577 199.213 124.788 199.982 123.583 200.275L 124.061 202.217ZM 87.4797 123.522C 90.088 122.755 92.0963 121.892 93.4694 120.852C 94.8746 119.787 95.6818 118.479 95.6818 116.894L 93.6818 116.894C 93.6818 117.689 93.3148 118.46 92.2618 119.258C 91.1767 120.079 89.4429 120.86 86.9154 121.604L 87.4797 123.522ZM 95.6818 116.894C 95.6818 116.518 95.662 116.059 95.4939 115.651C 95.2883 115.152 94.9014 114.812 94.3852 114.653C 93.9505 114.519 93.4508 114.522 92.9529 114.562C 92.4478 114.604 91.8013 114.7 91.0209 114.831L 91.3543 116.803C 92.1151 116.675 92.6761 116.591 93.115 116.556C 93.5614 116.519 93.7426 116.548 93.7961 116.564C 93.8342 116.55 93.6287 116.435 93.6447 116.413C 93.6045 116.345 93.6828 116.572 93.6818 116.894L 95.6818 116.894ZM 91.021 114.831C 89.1222 115.153 83.2363 115.867 77.9339 116.418L 78.1409 118.408C 83.4602 117.854 89.4094 117.132 91.3542 116.803L 91.021 114.831ZM 77.9339 116.418C 73.4447 116.886 70.9024 117.174 69.4713 117.606C 68.7326 117.829 68.1218 118.135 67.7025 118.663C 67.2887 119.184 67.177 119.784 67.1077 120.271L 69.0877 120.553C 69.1519 120.102 69.2135 119.976 69.2687 119.907C 69.3183 119.844 69.472 119.695 70.049 119.521C 71.2493 119.159 73.5434 118.886 78.141 118.408L 77.9339 116.418ZM 67.1077 120.271C 66.9546 121.346 66.8633 122.32 66.9949 123.123C 67.1401 124.008 67.568 124.744 68.422 125.196C 69.1744 125.594 70.1634 125.716 71.3121 125.73C 72.4732 125.744 73.9825 125.644 75.8741 125.479L 75.7002 123.486C 73.8289 123.65 72.4188 123.745 71.3365 123.731C 70.242 123.717 69.6638 123.59 69.3578 123.428C 69.1534 123.32 69.0317 123.184 68.9686 122.799C 68.8919 122.332 68.9337 121.635 69.0877 120.553L 67.1077 120.271ZM 75.8741 125.479C 79.733 125.141 84.9656 124.26 87.4797 123.522L 86.9154 121.604C 84.5168 122.311 79.48 123.157 75.7002 123.486L 75.8741 125.479ZM 62.0518 120.748L 62.0518 117.489L 60.0518 117.489L 60.0518 120.748L 62.0518 120.748ZM 61.2287 116.505L 53.2524 115.072L 52.8987 117.041L 60.875 118.474L 61.2287 116.505ZM 53.2524 115.072C 48.8412 114.28 44.5012 113.396 43.5694 113.112L 42.9866 115.025C 44.0581 115.352 48.536 116.257 52.8987 117.041L 53.2524 115.072ZM 43.5694 113.112C 42.0867 112.661 40.7257 113.158 40.0634 114.385C 39.4526 115.517 39.5755 117.015 40.315 118.397L 42.0785 117.454C 41.5519 116.469 41.6232 115.706 41.8235 115.335C 41.9722 115.059 42.2849 114.812 42.9866 115.025L 43.5694 113.112ZM 40.315 118.397C 40.7959 119.296 41.8665 120.083 43.0561 120.748C 44.2786 121.43 45.8731 122.111 47.5884 122.699C 51.0061 123.868 55.1854 124.769 58.6407 124.91L 58.7203 122.912C 55.4374 122.785 51.5422 121.941 48.2363 120.807C 46.5899 120.244 45.1603 119.635 44.0322 119.003C 42.8714 118.354 42.265 117.802 42.0785 117.454L 40.315 118.397ZM 58.6407 124.91C 59.2059 124.933 59.7354 124.93 60.1485 124.86C 60.632 124.774 61.1265 124.567 61.4857 124.088C 61.8079 123.658 61.9245 123.131 61.9819 122.636C 62.0379 122.144 62.0518 121.508 62.0518 120.748L 60.0518 120.748C 60.0519 121.488 60.0425 122.009 59.9953 122.405C 59.9572 122.765 59.8191 122.95 59.8854 122.888C 59.8895 122.84 59.9785 122.87 59.7971 122.891C 59.5608 122.938 59.2476 122.933 58.7203 122.912L 58.6407 124.91ZM 130.078 36.7535C 132.858 34.5654 134.082 31.0913 133.93 27.4281C 133.778 23.7631 132.256 19.8286 129.442 16.539L 127.922 17.8392C 130.465 20.8113 131.8 24.3234 131.932 27.5109C 132.064 30.7003 130.997 33.4846 128.841 35.1819L 130.078 36.7535ZM 129.442 16.539C 126.556 13.1658 123.259 11.0063 120.024 10.2986C 116.753 9.58312 113.587 10.369 111.154 12.8026L 112.569 14.2165C 114.481 12.3033 116.937 11.6706 119.596 12.2524C 122.292 12.842 125.232 14.6956 127.922 17.8392L 129.442 16.539ZM 111.154 12.8026C 109.685 14.2729 108.73 16.1258 108.435 17.7796C 108.156 19.3382 108.426 21.2519 110.166 21.9198L 110.883 20.0527C 110.567 19.9316 110.169 19.4451 110.403 18.1317C 110.621 16.9136 111.363 15.4228 112.569 14.2165L 111.154 12.8026ZM 110.166 21.9199C 110.097 21.9035 110.374 22.0503 110.704 22.3497C 111.05 22.6612 111.459 23.0739 111.939 23.5888C 112.905 24.6257 114.065 25.9843 115.248 27.4536C 117.633 30.4163 119.994 33.6815 120.861 35.3829L 122.643 34.4742C 121.67 32.5674 119.188 29.1576 116.805 26.1992C 115.604 24.7079 114.398 23.2945 113.402 22.2254C 112.901 21.6874 112.43 21.2137 112.044 20.865C 111.69 20.5449 111.272 20.2021 110.883 20.0527L 110.166 21.9199ZM 120.861 35.3829C 121.793 37.2091 123.106 38.4452 124.848 38.68C 126.536 38.9077 128.31 38.1443 130.078 36.7535L 128.841 35.1819C 127.245 36.4377 126.015 36.8193 125.115 36.6979C 124.268 36.5838 123.409 35.9769 122.643 34.4742L 120.861 35.3829ZM 23.8423 30.9419C 24.9195 29.3594 28.0923 25.7774 30.8948 23.0081L 29.489 21.5855C 26.6646 24.3765 23.3788 28.0686 22.189 29.8165L 23.8423 30.9419ZM 30.8948 23.0081L 36.01 17.9533L 34.6042 16.5307L 29.489 21.5855L 30.8948 23.0081ZM 36.2727 16.9822L 35.3275 13.4699L 33.3962 13.9896L 34.3415 17.5019L 36.2727 16.9822ZM 35.3275 13.4698C 34.0271 8.6383 30.6611 5.95502 26.5396 5.77336C 22.5038 5.59549 17.9852 7.82424 14.2198 12.2254L 15.7396 13.5256C 19.2411 9.43281 23.2132 7.62869 26.4515 7.77142C 29.6042 7.91037 32.2958 9.90117 33.3962 13.9896L 35.3275 13.4698ZM 14.2198 12.2254C 10.3948 16.6963 9.06122 22.0607 9.96646 26.423C 10.8814 30.8319 14.1116 34.2137 19.2018 34.3578L 19.2584 32.3586C 15.224 32.2444 12.679 29.6514 11.9247 26.0167C 11.1608 22.3354 12.2643 17.5876 15.7396 13.5256L 14.2198 12.2254ZM 19.2018 34.3578C 20.0737 34.3824 20.9419 33.9188 21.6653 33.3496C 22.3889 32.7759 23.1794 31.9113 23.8423 30.9419L 22.189 29.8165C 21.6102 30.6712 21.0274 31.3108 20.4285 31.7779C 19.8292 32.2494 19.4254 32.3633 19.2583 32.3586L 19.2018 34.3578ZM 65.7658 90.2605C 64.9178 90.0597 64.2887 89.8916 63.7999 89.719C 63.3125 89.5477 63.088 89.4123 62.9913 89.3273C 62.9407 89.2829 62.9591 89.2923 62.9589 89.2882C 62.9552 89.2142 62.9775 89.0355 63.1239 88.6538L 61.2565 87.9376C 61.0856 88.3832 60.9363 88.8832 60.9614 89.3876C 60.9899 89.9617 61.2376 90.4489 61.6715 90.83C 62.0592 91.1706 62.5744 91.4083 63.1367 91.6059C 63.6976 91.8023 64.4281 91.9989 65.3046 92.2067L 65.7658 90.2605ZM 63.1239 88.6538C 63.1907 88.4698 63.2782 88.42 63.2278 88.4471C 63.2001 88.4897 63.1777 88.4401 63.3145 88.4364C 63.6494 88.4026 64.3006 88.5059 65.6642 88.8825L 66.1968 86.9548C 64.9046 86.5978 63.8855 86.3687 63.114 86.4465C 62.6793 86.4903 62.2629 86.6342 61.9116 86.9412C 61.6383 87.197 61.3894 87.6007 61.2565 87.9376L 63.1239 88.6538ZM 65.6642 88.8825C 69.0296 89.8122 75.3435 89.4955 80.5582 88.2387L 80.0896 86.2943C 75.0195 87.5163 69.0909 87.7542 66.1968 86.9548L 65.6642 88.8825ZM 80.5582 88.2387C 81.0637 88.1167 81.413 88.0438 81.6864 88.0147C 81.9735 87.9831 81.9639 88.0292 81.8541 87.9776C 81.7729 87.9395 81.6832 87.8694 81.6179 87.7682C 81.5592 87.6773 81.5499 87.6072 81.5496 87.6046C 81.5432 87.5742 81.5545 87.6395 81.5454 87.7305C 81.5367 87.8319 81.5204 87.9338 81.4909 88.0863L 83.4548 88.4643C 83.522 88.1156 83.5814 87.7129 83.5323 87.3421C 83.4738 86.9001 83.2433 86.4204 82.704 86.1672C 82.2851 85.9705 81.8197 85.988 81.4673 86.0268C 81.1013 86.0682 80.6275 86.1649 80.0896 86.2943L 80.5582 88.2387ZM 81.4909 88.0863C 81.4419 88.3411 81.1227 88.8047 80.1081 89.3179C 79.1155 89.8244 77.8049 90.2115 76.212 90.488C 72.998 91.0531 69.1077 91.0594 65.7658 90.2605L 65.3046 92.2067C 68.8764 93.046 73.1715 93.0455 76.5561 92.4581C 78.2626 92.1584 79.8547 91.6828 81.0108 91.1026C 82.1449 90.529 83.2205 89.682 83.4548 88.4644L 81.4909 88.0863ZM 68.6367 77.1196C 68.2105 76.6659 67.9097 76.3275 67.6929 76.0411C 67.475 75.7544 67.4264 75.6267 67.42 75.6025C 67.4161 75.5917 67.4253 75.6318 67.4241 75.6324C 67.4253 75.6281 67.4207 75.7188 67.4205 75.7092C 67.4103 75.7754 67.3858 75.8231 67.3714 75.8449C 67.3529 75.8936 67.426 75.7795 67.6453 75.6428L 66.5759 73.9527C 66.2828 74.1381 65.9381 74.3873 65.7044 74.7399C 65.4263 75.1594 65.36 75.6366 65.4868 76.1151C 65.5957 76.5256 65.8383 76.9063 66.1008 77.2515C 66.3643 77.5969 66.733 78.0138 67.1787 78.4886L 68.6367 77.1196ZM 67.6453 75.6428C 67.8514 75.5124 68.4015 75.3389 69.3083 75.2091C 70.1798 75.0835 71.1909 75.0205 72.2408 75.0167C 73.2908 75.012 74.3001 75.0668 75.1685 75.1853C 76.0742 75.308 76.6149 75.4769 76.811 75.6011L 77.8813 73.9116C 77.2823 73.5321 76.3476 73.3268 75.437 73.2034C 74.4892 73.0758 73.3414 73.0126 72.2327 73.0167C 71.1242 73.0216 69.9753 73.094 69.0249 73.2293C 68.1098 73.3603 67.1761 73.5729 66.5759 73.9527L 67.6453 75.6428ZM 76.811 75.6011C 77.0039 75.7233 76.996 75.7602 76.963 75.6977C 76.8995 75.5773 76.9288 75.4698 76.9235 75.4852C 76.903 75.5444 76.8256 75.6982 76.5917 75.9871C 76.3568 76.2782 76.0406 76.6153 75.6001 77.0558L 77.0147 78.4696C 77.4782 78.0058 77.8651 77.5917 78.1461 77.2456C 78.4281 76.8973 78.6793 76.5278 78.8138 76.1384C 78.9635 75.7052 78.9742 75.2236 78.732 74.7645C 78.5203 74.3633 78.1736 74.0968 77.8813 73.9116L 76.811 75.6011ZM 75.6001 77.0558C 74.2918 78.3648 73.0899 78.8985 72.0287 78.9037C 70.9775 78.9089 69.8354 78.3962 68.6367 77.1196L 67.1787 78.4886C 68.6219 80.0256 70.2601 80.9125 72.0385 80.9037C 73.8069 80.895 75.4839 80.0013 77.0147 78.4696L 75.6001 77.0558ZM 41.6629 67.405C 40.8215 66.4748 40.5515 65.7526 40.5665 65.187C 40.5813 64.6345 40.8756 63.9801 41.7423 63.1954L 40.4 61.7128C 39.3099 62.6997 38.602 63.8309 38.5672 65.1337C 38.5329 66.4234 39.1663 67.6263 40.1797 68.7467L 41.6629 67.405ZM 41.7423 63.1954C 42.6722 62.3535 43.3938 62.0835 43.9586 62.0986C 44.5102 62.1133 45.1641 62.4076 45.9486 63.2748L 47.4318 61.9332C 46.4454 60.8427 45.3147 60.1341 44.0119 60.0993C 42.7223 60.0649 41.5198 60.6989 40.4 61.7128L 41.7423 63.1954ZM 45.9486 63.2749C 46.79 64.2051 47.0601 64.9273 47.045 65.4929C 47.0303 66.0454 46.7359 66.6999 45.8692 67.4846L 47.2116 68.9672C 48.3016 67.9802 49.0096 66.849 49.0443 65.5462C 49.0787 64.2565 48.4453 63.0536 47.4318 61.9332L 45.9486 63.2749ZM 45.8692 67.4846C 44.9394 68.3265 44.2178 68.5964 43.653 68.5813C 43.1013 68.5666 42.4474 68.2723 41.663 67.4051L 40.1797 68.7467C 41.1661 69.8372 42.2968 70.5458 43.5996 70.5806C 44.8892 70.615 46.0918 69.9811 47.2116 68.9672L 45.8692 67.4846ZM 98.5752 67.405C 97.7337 66.4748 97.4637 65.7526 97.4787 65.187C 97.4935 64.6346 97.7879 63.9801 98.6546 63.1954L 97.3122 61.7128C 96.2222 62.6997 95.5142 63.8309 95.4795 65.1337C 95.4451 66.4234 96.0785 67.6263 97.0919 68.7467L 98.5752 67.405ZM 98.6546 63.1954C 99.5844 62.3535 100.306 62.0835 100.871 62.0986C 101.422 62.1133 102.076 62.4076 102.861 63.2748L 104.344 61.9332C 103.358 60.8427 102.227 60.1341 100.924 60.0993C 99.6345 60.0649 98.432 60.6989 97.3122 61.7128L 98.6546 63.1954ZM 102.861 63.2749C 103.702 64.2051 103.972 64.9273 103.957 65.4929C 103.942 66.0454 103.648 66.6998 102.781 67.4846L 104.124 68.9672C 105.214 67.9802 105.922 66.8491 105.957 65.5462C 105.991 64.2565 105.357 63.0536 104.344 61.9332L 102.861 63.2749ZM 102.781 67.4846C 101.852 68.3265 101.13 68.5964 100.565 68.5813C 100.014 68.5666 99.3596 68.2723 98.5752 67.4051L 97.0919 68.7467C 98.0783 69.8372 99.209 70.5458 100.512 70.5806C 101.801 70.615 103.004 69.9811 104.124 68.9672L 102.781 67.4846ZM 14.3477 66.1526C 14.0166 65.4323 13.8788 64.9647 13.8732 64.4971C 13.8484 64.0632 13.9218 63.8244 14.1793 63.4331L 12.4867 62.3677C 12.099 63.0013 11.865 63.8059 11.874 64.5541C 11.9021 65.2686 12.1392 66.1218 12.5276 66.9814L 14.3477 66.1526ZM 14.1793 63.433C 14.9142 62.2654 16.0279 61.9945 16.9367 62.2733C 17.8517 62.554 18.6612 63.4257 18.6612 64.8417L 20.6612 64.8417C 20.6612 62.553 19.2839 60.9014 17.5233 60.3613C 15.7566 59.8193 13.7061 60.4302 12.4867 62.3677L 14.1793 63.433ZM 18.6612 64.8417C 18.6612 66.5252 17.7657 67.4343 16.91 67.6716C 16.0885 67.8993 15.0036 67.5927 14.3477 66.1525L 12.5276 66.9815C 13.5457 69.2171 15.5726 70.1178 17.4443 69.5989C 19.2819 69.0894 20.6612 67.298 20.6612 64.8417L 18.6612 64.8417ZM 20.8212 182.141C 20.0573 189.791 19.6202 194.448 19.2137 197.249C 19.0137 198.631 18.839 199.481 18.6342 200.038C 18.4422 200.567 18.3309 200.515 18.4321 200.478L 19.1054 202.362C 19.8513 202.095 20.2524 201.441 20.5142 200.72C 20.763 200.027 20.9833 198.979 21.193 197.536C 21.6061 194.685 22.048 189.983 22.8113 182.34L 20.8212 182.141ZM 18.4321 200.478C 18.4752 200.442 18.3798 200.497 18.1215 200.446C 17.8439 200.396 17.4864 200.295 17.0205 200.193L 16.5971 202.148C 17.0039 202.236 17.3902 202.344 17.7562 202.413C 18.1188 202.48 18.61 202.539 19.1054 202.362L 18.4321 200.478ZM 118.462 187.532C 119.094 193.014 119.491 196.456 119.87 198.576C 120.064 199.657 120.277 200.482 120.51 201.032C 120.767 201.63 121.153 202.167 121.809 202.398L 122.473 200.511C 122.572 200.546 122.502 200.601 122.348 200.243C 122.17 199.838 122.019 199.233 121.839 198.224C 121.469 196.165 121.08 192.785 120.449 187.303L 118.462 187.532ZM 121.809 202.398C 122.144 202.502 122.581 202.519 122.887 202.481C 123.173 202.44 123.488 202.362 123.782 202.287L 123.289 200.349C 122.995 200.424 122.792 200.477 122.618 200.499C 122.464 200.523 122.448 200.488 122.473 200.511L 121.809 202.398ZM 123.782 202.287C 123.874 202.264 123.966 202.241 124.061 202.217L 123.583 200.275C 123.48 200.3 123.381 200.326 123.289 200.349L 123.782 202.287ZM 120.449 187.303L 120.25 185.577L 118.263 185.806L 118.462 187.532L 120.449 187.303ZM 30.0139 244.789C 29.7315 245.748 29.7315 245.748 29.7316 245.748C 29.7316 245.748 29.7317 245.748 29.7318 245.748C 29.7319 245.748 29.7322 245.748 29.7325 245.748C 29.733 245.748 29.7339 245.749 29.735 245.749C 29.737 245.749 29.7402 245.75 29.7443 245.752C 29.7522 245.754 29.7642 245.757 29.7797 245.762C 29.8102 245.771 29.8558 245.784 29.9138 245.801C 30.029 245.834 30.1972 245.882 30.4031 245.94C 30.8131 246.056 31.3843 246.214 32.0087 246.378C 33.2548 246.704 34.7835 247.068 35.7369 247.178L 35.9635 245.191C 35.1302 245.098 33.7408 244.764 32.5154 244.443C 31.9041 244.283 31.3512 244.13 30.9461 244.016C 30.7444 243.959 30.5823 243.912 30.469 243.879C 30.4128 243.863 30.3697 243.851 30.34 243.842C 30.3254 243.838 30.3145 243.835 30.3069 243.832C 30.3033 243.831 30.3006 243.831 30.2988 243.83C 30.2979 243.83 30.2973 243.83 30.2969 243.829C 30.2967 243.829 30.2966 243.829 30.2965 243.829C 30.2964 243.829 30.2964 243.829 30.2964 243.829C 30.2964 243.829 30.2964 243.829 30.0139 244.789ZM 35.7369 247.178C 36.326 247.246 37.1915 247.163 38.0532 247.042C 38.9438 246.917 39.9653 246.73 40.9104 246.54C 41.8564 246.35 42.75 246.153 43.4 246.005C 43.7261 245.931 43.9949 245.868 44.1801 245.824C 44.2732 245.802 44.3466 245.784 44.3959 245.773C 44.4208 245.767 44.4402 245.762 44.453 245.759C 44.4595 245.757 44.4646 245.756 44.4679 245.755C 44.4696 245.755 44.471 245.754 44.4719 245.754C 44.4723 245.754 44.4727 245.754 44.4729 245.754C 44.4731 245.754 44.4732 245.754 44.4733 245.754C 44.4733 245.754 44.4734 245.754 44.2369 244.782C 44.0004 243.811 44.0004 243.811 44.0004 243.811C 44.0004 243.811 44.0004 243.811 44.0003 243.811C 44.0001 243.811 43.9999 243.811 43.9996 243.811C 43.9988 243.811 43.9978 243.811 43.9963 243.812C 43.9933 243.812 43.9889 243.813 43.9829 243.815C 43.9706 243.818 43.9527 243.822 43.9288 243.828C 43.8806 243.839 43.8104 243.856 43.7196 243.878C 43.5368 243.921 43.276 243.982 42.9555 244.055C 42.3122 244.202 41.444 244.393 40.5167 244.579C 39.5884 244.766 38.6249 244.942 37.7756 245.061C 36.8972 245.184 36.2677 245.226 35.9635 245.191L 35.7369 247.178ZM 95.883 245.762L 103.988 247.658L 104.443 245.711L 96.3386 243.815L 95.883 245.762ZM 107.134 247.668L 115.551 245.755L 115.107 243.804L 106.691 245.718L 107.134 247.668ZM 103.988 247.658C 104.986 247.885 106.135 247.889 107.134 247.668L 106.691 245.718C 105.915 245.901 105.219 245.899 104.443 245.711L 103.988 247.658Z"/>
<path id="path9_fill" d="M 26.0729 52.1716C 40.4725 52.1716 52.1457 40.4926 52.1457 26.0858C 52.1457 11.679 40.4725 0 26.0729 0C 11.6732 0 0 11.679 0 26.0858C 0 40.4926 11.6732 52.1716 26.0729 52.1716Z"/>
<path id="path10_fill" d="M 14.184 16.7688L 2.06402e-07 10.1908L 2.06402e-07 6.54802L 14.184 4.24059e-07L 14.184 4.29053L 4.28848 8.32666L 14.184 12.5124L 14.184 16.7688Z"/>
<path id="path11_fill" d="M 7.6445e-07 22.8251L 5.12413 5.38229e-07L 8.10201 5.38229e-07L 2.92177 22.8251L 7.6445e-07 22.8251Z"/>
<path id="path12_fill" d="M 6.72716e-07 16.7581L 6.72716e-07 12.4953L 9.90758 8.33948L 6.72716e-07 4.23067L 6.72716e-07 -5.70849e-07L 14.1981 6.54802L 14.1981 10.1609L 6.72716e-07 16.7581Z"/>
</defs>
</svg>
